<?xml version="1.0"?>
<svg xmlns="http://www.w3.org/2000/svg" height="512px" viewBox="0 0 511 511.9997" width="512px" class=""><g><path d="m256.558594 507.65625-25.351563-25.347656c-26.695312-26.699219-26.695312-70.140625 0-96.835938l5.738281-5.738281c12.78125-12.78125 29.773438-19.902344 47.851563-20.050781.191406 0 .386719-.003906.578125-.003906 17.863281 0 34.746094 6.828124 47.597656 19.261718l29.492188 28.535156c15.015625 14.523438 39.242187 14.324219 54.015625-.445312 7.296875-7.296875 11.304687-17.003906 11.28125-27.324219-.023438-10.324219-4.078125-20.007812-11.410157-27.273437l-106.886718-105.894532 21.089844-21.285156 106.882812 105.898438c13.035156 12.914062 20.238281 30.132812 20.285156 48.480468.042969 18.351563-7.082031 35.605469-20.058594 48.582032-12.78125 12.78125-29.773437 19.902344-47.851562 20.054687-.191406 0-.386719 0-.578125 0-17.863281 0-34.746094-6.828125-47.597656-19.261719l-29.496094-28.535156c-15.011719-14.523437-39.242187-14.324218-54.011719.445313l-5.734375 5.738281c-15.019531 15.015625-15.019531 39.449219 0 54.464844l25.347657 25.351562zm0 0" fill="#e2d9fb" data-original="#E2D9FB" class="active-path" style="fill:#00BFA5" data-old_color="#00bfa5"/><path d="m.5 512s366.492188-457.585938 392.808594-483.894531c14.84375-14.847657 33.296875-24.546875 51.957031-27.316407 20.019531-2.972656 38.722656 2.542969 51.308594 15.132813 12.589843 12.589844 18.109375 31.292969 15.136719 51.3125-2.769532 18.660156-12.46875 37.113281-27.316407 51.960937-26.3125 26.308594-483.894531 392.804688-483.894531 392.804688zm0 0" fill="#fd5d99" data-original="#FD5D99" class="" style="fill:#00B8D4" data-old_color="#00b8d4"/><path d="m.5 511.996094v.003906s457.582031-366.496094 483.894531-392.808594c14.847657-14.84375 24.546875-33.296875 27.316407-51.957031 2.96875-20.019531-2.546876-38.722656-15.136719-51.3125zm0 0" fill="#e2407a" data-original="#E2407A" class="" style="fill:#00ACC1" data-old_color="#00acc1"/><path d="m423.554688 103.832031c-5.308594 0-8.9375-2.796875-10.691407-4.554687-2.914062-2.910156-8.734375-11.046875.332031-23.476563 2.078126-2.851562 4.90625-6.085937 8.175782-9.355469 3.269531-3.269531 6.503906-6.097656 9.351562-8.175781 12.425782-9.058593 20.566406-3.246093 23.488282-.324219 2.921874 2.925782 8.734374 11.0625-.328126 23.488282-2.074218 2.847656-4.902343 6.082031-8.171874 9.351562-3.269532 3.273438-6.507813 6.097656-9.355469 8.175782-4.972657 3.625-9.261719 4.871093-12.800781 4.871093zm0 0" fill="#e2407a" data-original="#E2407A" class="" style="fill:#00ACC1" data-old_color="#00acc1"/><path d="m413.042969 99.453125c1.816406 1.761719 5.375 4.378906 10.511719 4.378906 3.539062 0 7.828124-1.246093 12.800781-4.871093 2.847656-2.078126 6.082031-4.90625 9.351562-8.175782 3.273438-3.269531 6.097657-6.503906 8.175781-9.351562 8.890626-12.191406 3.464844-20.25.496094-23.3125zm0 0" fill="#b51359" data-original="#B51359" class="" style="fill:#006064" data-old_color="#B51359"/><path d="m422.757812 46.648438c-8.386718-8.382813-18.195312-14.8125-28.878906-19.097657-10.085937-4.042969-20.949218-6.179687-32.144531-6.179687-23.050781 0-44.722656 8.980468-61.023437 25.277344l-41.457032 41.460937c-30.648437 30.644531-33.371094 78.792969-8.191406 112.5625 6.707031-8.285156 13.324219-16.453125 19.820312-24.460937-11.714843-21.386719-8.539062-48.824219 9.554688-66.917969l41.460938-41.460938c10.640624-10.640625 24.789062-16.5 39.835937-16.5 3.59375 0 7.132813.34375 10.585937.996094 11.015626 2.082031 21.152344 7.40625 29.253907 15.503906l19.796875 19.796875 21.183594-21.183594zm0 0" fill="#f2f2fc" data-original="#F2F2FC" class="" style="fill:#1DE9B6" data-old_color="#1de9b6"/></g> </svg>
